# xmcd
#
# Track frame offsets: 
#        150
#        14367
#        37892
#        61655
#        82667
#        101117
#        116712
#        142330
#        158077
#        175530
#        192750
#        213840
#
# Disc length: 3046 seconds
#
# Revision: 2
# Processed by: cddbd v1.5.2PL0 Copyright (c) Steve Scherf et al.
# Submitted via: ExactAudioCopy v0.99pb4
#
DISCID=920be40c
DTITLE=Downchild Blues Band - Good Times Guaranteed
DYEAR=1994
DGENRE=Blues
TTITLE0=Good Times Guaranteed
TTITLE1=I'm Mixed Up
TTITLE2=Wednesday Night Blues
TTITLE3=Dusty Road
TTITLE4=Hook, Line, and Sinker
TTITLE5=I Can't Stand It
TTITLE6=Big Hill
TTITLE7=Annie's Got A Sister
TTITLE8=Master Chef
TTITLE9=I Am Mister Downchild
TTITLE10=Mr. Confused
TTITLE11=I'm Finished
EXTD=
EXTT0=
EXTT1=
EXTT2=
EXTT3=
EXTT4=
EXTT5=
EXTT6=
EXTT7=
EXTT8=
EXTT9=
EXTT10=
EXTT11=
PLAYORDER=
